<?xml version="1.0" encoding="utf-8"?>
<!-- Generator: Adobe Illustrator 26.0.1, SVG Export Plug-In . SVG Version: 6.00 Build 0)  -->
<svg version="1.1" id="Camada_1" xmlns="http://www.w3.org/2000/svg" xmlns:xlink="http://www.w3.org/1999/xlink" x="0px" y="0px"
	 viewBox="0 0 511.8 511.8" style="enable-background:new 0 0 511.8 511.8;" xml:space="preserve">
<style type="text/css">
	.st0{fill:#FCF1E8;}
	.st1{fill:#E57F24;}
</style>
<g>
	<path class="st0" d="M511.8,270.9c0,0.7,0,1.3,0,2c-1.7,0.2-2,1.4-2,2.9c0,10.3-2.1,20.4-4,30.4c-4.4,23-12.2,44.8-22.6,65.6
		c-5.6,11.3-12.5,21.8-19.7,32.2c-14.7,21.4-32.7,39.6-53.1,55.3c-15.4,11.8-31.9,21.9-49.8,29.7c-21.5,9.4-43.7,16.2-66.9,19.8
		c-6.8,1-13.7,0.9-20.4,2.9c-11.6,0-23.3,0-34.9,0c-0.7-0.3-1.5-0.9-2.2-0.9c-10.6-0.2-21-2-31.4-4.1c-30-6.1-58.1-17.2-84.1-33.3
		c-21.7-13.5-41-29.7-57.8-49c-7.7-8.9-14.9-18.2-21.3-28.1c-9-14-16.8-28.6-23.1-44.1c-8.5-21-13.8-42.8-16.8-65.3
		c-0.6-4.7,0.2-9.6-1.8-14.1c0-11.3,0-22.7,0-34c0.3-0.7,0.9-1.5,0.9-2.2c0.8-17.3,4-34.1,8.8-50.7c13-45,36.2-83.7,70.3-115.9
		c13.3-12.6,27.6-23.8,43.3-33.1c29-17.3,60.1-29.1,93.7-34.1c6.8-1,13.7-0.9,20.4-2.9c11.6,0,23.3,0,34.9,0c0.8,1,2,1,3.2,1
		c12.9,0.4,25.6,2.9,38.2,5.7c23.5,5.3,45.6,14.4,66.6,26c16,8.8,31,19.2,44.4,31.7c17.7,16.6,33.9,34.5,46.9,55.3
		c11.1,17.9,20.2,36.6,26.7,56.5c6.3,19.4,10.6,39.3,11.5,59.8c0.1,1.4,0.3,2.7,2,2.9c0,0.7,0,1.3,0,2c-2.2,6-0.7,12.3-0.9,18.5
		C510.8,263.2,509.7,267.2,511.8,270.9z M281.2,236.6c5.5-7.9,10.5-15.5,16.8-22.2c19-20.1,41.9-25.6,67.8-17.2
		c24.7,8,41.1,30.5,42.7,56.6c1.6,26-13.3,51-37.1,61.5c-21.5,9.5-50.3,8.5-70.3-12.6c-13-13.7-22.3-29.8-31.3-46.1
		c-10.1-18-19.4-36.5-32.4-52.6c-16.8-20.7-37.7-34-64.7-36c-56.2-4.1-101.1,42.3-95.9,98.7c4.7,50.7,55,88.2,105.1,78.5
		c26.6-5.1,45.2-21.3,60.3-42.5c0.8-1.1,1.5-2,0.6-3.6c-4.3-7.4-8.5-14.9-12.8-22.4c-2.1,0.8-2.4,2.6-3.3,3.9
		c-8.7,13.3-18.1,26.2-32.8,33.4c-22.5,11.1-44.8,9.3-65.1-5.2c-20.5-14.6-29.6-35.2-26.2-60.3c3.5-25.8,18.1-43.6,42.6-51.7
		c24.7-8.2,47.2-3.5,65.9,15.8c11.4,11.9,19.7,25.9,27.7,40.1c10.5,18.7,19.8,38.1,33,55.2c21.4,27.7,48.8,41.8,84.4,37.7
		c50.9-5.9,87.2-56.5,76.3-106.6c-7.9-36.5-36-64-72.6-70c-39.2-6.4-68.8,9.8-91.4,41.1c-0.9,1.3-1.5,2.5-0.5,4.1
		C272.3,221.6,276.6,228.9,281.2,236.6z"/>
	<path class="st1" d="M281.2,236.6c-4.6-7.7-9-14.9-13.3-22.1c-1-1.6-0.4-2.8,0.5-4.1c22.6-31.3,52.2-47.5,91.4-41.1
		c36.6,6,64.7,33.6,72.6,70c10.9,50.1-25.4,100.7-76.3,106.6c-35.6,4.1-63-10.1-84.4-37.7c-13.2-17.1-22.5-36.5-33-55.2
		c-8-14.2-16.3-28.3-27.7-40.1c-18.6-19.3-41.2-23.9-65.9-15.8c-24.5,8.1-39.1,25.9-42.6,51.7c-3.4,25.2,5.7,45.8,26.2,60.3
		c20.3,14.4,42.6,16.2,65.1,5.2c14.7-7.2,24.1-20.1,32.8-33.4c0.9-1.3,1.2-3.1,3.3-3.9c4.2,7.5,8.4,14.9,12.8,22.4
		c0.9,1.5,0.2,2.5-0.6,3.6c-15.2,21.2-33.7,37.3-60.3,42.5c-50.1,9.7-100.4-27.8-105.1-78.5c-5.2-56.4,39.7-102.8,95.9-98.7
		c27,2,48,15.3,64.7,36c13.1,16.1,22.4,34.6,32.4,52.6c9.1,16.3,18.3,32.4,31.3,46.1c20.1,21.1,48.8,22.2,70.3,12.6
		c23.8-10.6,38.7-35.5,37.1-61.5c-1.6-26.1-18-48.7-42.7-56.6c-25.9-8.4-48.8-2.9-67.8,17.2C291.7,221.1,286.8,228.7,281.2,236.6z"
		/>
</g>
</svg>
